REM DIRINDEX 1\2,1\3,1\4,1\6,1\5\7,1\5\8
REM DIRNAME cjc114,folder01,folder02,folder03,folder04,folder05,folder06,folder07
TITLE ""
FILE "DB4500_5th_6C_33.mp3" MP3
  TRACK 01 AUDIO
    TITLE "0:"
    INDEX 01 00:00:00
  TRACK 02 AUDIO
    TITLE "2:cjc114_4400"
    INDEX 01 00:00:07
  TRACK 03 AUDIO
    TITLE "0:"
    INDEX 01 00:01:26
  TRACK 04 AUDIO
    TITLE "3:cjc114_4401"
    INDEX 01 00:01:42
  TRACK 05 AUDIO
    TITLE "0:"
    INDEX 01 00:02:55
  TRACK 06 AUDIO
    TITLE "4:cjc114_4402"
    INDEX 01 00:02:67
  TRACK 07 AUDIO
    TITLE "0:"
    INDEX 01 00:05:14
  TRACK 08 AUDIO
    TITLE "2:cjc114_4403"
    INDEX 01 00:05:56
  TRACK 09 AUDIO
    TITLE "0:"
    INDEX 01 00:06:53
  TRACK 10 AUDIO
    TITLE "3:cjc114_4404"
    INDEX 01 00:06:67
  TRACK 11 AUDIO
    TITLE "0:"
    INDEX 01 00:08:38
  TRACK 12 AUDIO
    TITLE "4:cjc114_4405"
    INDEX 01 00:08:52
  TRACK 13 AUDIO
    TITLE "0:"
    INDEX 01 00:12:48
  TRACK 14 AUDIO
    TITLE "2:cjc114_4406"
    INDEX 01 00:13:10
  TRACK 15 AUDIO
    TITLE "0:"
    INDEX 01 00:14:17
  TRACK 16 AUDIO
    TITLE "3:cjc114_4407"
    INDEX 01 00:14:31
  TRACK 17 AUDIO
    TITLE "0:"
    INDEX 01 00:15:46
  TRACK 18 AUDIO
    TITLE "4:cjc114_4408"
    INDEX 01 00:15:60
  TRACK 19 AUDIO
    TITLE "0:"
    INDEX 01 00:19:20
  TRACK 20 AUDIO
    TITLE "2:cjc114_4409"
    INDEX 01 00:19:58
  TRACK 21 AUDIO
    TITLE "0:"
    INDEX 01 00:20:69
  TRACK 22 AUDIO
    TITLE "3:cjc114_4410"
    INDEX 01 00:21:08
  TRACK 23 AUDIO
    TITLE "0:"
    INDEX 01 00:22:29
  TRACK 24 AUDIO
    TITLE "4:cjc114_4411"
    INDEX 01 00:22:42
  TRACK 25 AUDIO
    TITLE "0:"
    INDEX 01 00:26:42
  TRACK 26 AUDIO
    TITLE "2:cjc114_4412"
    INDEX 01 00:27:06
  TRACK 27 AUDIO
    TITLE "0:"
    INDEX 01 00:28:12
  TRACK 28 AUDIO
    TITLE "3:cjc114_4413"
    INDEX 01 00:28:27
  TRACK 29 AUDIO
    TITLE "0:"
    INDEX 01 00:29:38
  TRACK 30 AUDIO
    TITLE "4:cjc114_4414"
    INDEX 01 00:29:54
  TRACK 31 AUDIO
    TITLE "0:"
    INDEX 01 00:33:22
  TRACK 32 AUDIO
    TITLE "2:cjc114_4415"
    INDEX 01 00:33:58
  TRACK 33 AUDIO
    TITLE "0:"
    INDEX 01 00:34:65
  TRACK 34 AUDIO
    TITLE "3:cjc114_4416"
    INDEX 01 00:35:04
  TRACK 35 AUDIO
    TITLE "0:"
    INDEX 01 00:36:11
  TRACK 36 AUDIO
    TITLE "4:cjc114_4417"
    INDEX 01 00:36:27
  TRACK 37 AUDIO
    TITLE "0:"
    INDEX 01 00:38:53
  TRACK 38 AUDIO
    TITLE "2:cjc114_4418"
    INDEX 01 00:39:13
  TRACK 39 AUDIO
    TITLE "0:"
    INDEX 01 00:40:24
  TRACK 40 AUDIO
    TITLE "3:cjc114_4419"
    INDEX 01 00:40:38
  TRACK 41 AUDIO
    TITLE "0:"
    INDEX 01 00:41:57
  TRACK 42 AUDIO
    TITLE "4:cjc114_4420"
    INDEX 01 00:41:71
  TRACK 43 AUDIO
    TITLE "0:"
    INDEX 01 00:44:26
  TRACK 44 AUDIO
    TITLE "2:cjc114_4421"
    INDEX 01 00:44:63
  TRACK 45 AUDIO
    TITLE "0:"
    INDEX 01 00:46:23
  TRACK 46 AUDIO
    TITLE "3:cjc114_4422"
    INDEX 01 00:46:37
  TRACK 47 AUDIO
    TITLE "0:"
    INDEX 01 00:47:58
  TRACK 48 AUDIO
    TITLE "4:cjc114_4423"
    INDEX 01 00:47:74
  TRACK 49 AUDIO
    TITLE "0:"
    INDEX 01 00:52:55
  TRACK 50 AUDIO
    TITLE "2:cjc114_4424"
    INDEX 01 00:53:15
  TRACK 51 AUDIO
    TITLE "0:"
    INDEX 01 00:54:56
  TRACK 52 AUDIO
    TITLE "3:cjc114_4425"
    INDEX 01 00:54:68
  TRACK 53 AUDIO
    TITLE "0:"
    INDEX 01 00:56:14
  TRACK 54 AUDIO
    TITLE "4:cjc114_4426"
    INDEX 01 00:56:29
  TRACK 55 AUDIO
    TITLE "0:"
    INDEX 01 01:00:06
  TRACK 56 AUDIO
    TITLE "2:cjc114_4427"
    INDEX 01 01:00:60
  TRACK 57 AUDIO
    TITLE "0:"
    INDEX 01 01:01:64
  TRACK 58 AUDIO
    TITLE "3:cjc114_4428"
    INDEX 01 01:02:03
  TRACK 59 AUDIO
    TITLE "0:"
    INDEX 01 01:03:29
  TRACK 60 AUDIO
    TITLE "4:cjc114_4429"
    INDEX 01 01:03:43
  TRACK 61 AUDIO
    TITLE "0:"
    INDEX 01 01:05:73
  TRACK 62 AUDIO
    TITLE "2:cjc114_4430"
    INDEX 01 01:06:36
  TRACK 63 AUDIO
    TITLE "0:"
    INDEX 01 01:07:37
  TRACK 64 AUDIO
    TITLE "3:cjc114_4431"
    INDEX 01 01:07:49
  TRACK 65 AUDIO
    TITLE "0:"
    INDEX 01 01:08:58
  TRACK 66 AUDIO
    TITLE "4:cjc114_4432"
    INDEX 01 01:08:74
  TRACK 67 AUDIO
    TITLE "0:"
    INDEX 01 01:12:28
  TRACK 68 AUDIO
    TITLE "2:cjc114_4433"
    INDEX 01 01:12:66
  TRACK 69 AUDIO
    TITLE "0:"
    INDEX 01 01:15:56
  TRACK 70 AUDIO
    TITLE "3:cjc114_4434"
    INDEX 01 01:15:72
  TRACK 71 AUDIO
    TITLE "0:"
    INDEX 01 01:17:30
  TRACK 72 AUDIO
    TITLE "4:cjc114_4435"
    INDEX 01 01:17:43
  TRACK 73 AUDIO
    TITLE "0:"
    INDEX 01 01:20:22
  TRACK 74 AUDIO
    TITLE "2:cjc114_4436"
    INDEX 01 01:20:61
  TRACK 75 AUDIO
    TITLE "0:"
    INDEX 01 01:21:65
  TRACK 76 AUDIO
    TITLE "3:cjc114_4437"
    INDEX 01 01:22:01
  TRACK 77 AUDIO
    TITLE "0:"
    INDEX 01 01:23:09
  TRACK 78 AUDIO
    TITLE "4:cjc114_4438"
    INDEX 01 01:23:22
  TRACK 79 AUDIO
    TITLE "0:"
    INDEX 01 01:26:25
  TRACK 80 AUDIO
    TITLE "2:cjc114_4439"
    INDEX 01 01:26:60
  TRACK 81 AUDIO
    TITLE "0:"
    INDEX 01 01:27:63
  TRACK 82 AUDIO
    TITLE "3:cjc114_4440"
    INDEX 01 01:28:02
  TRACK 83 AUDIO
    TITLE "0:"
    INDEX 01 01:29:33
  TRACK 84 AUDIO
    TITLE "4:cjc114_4441"
    INDEX 01 01:29:48
  TRACK 85 AUDIO
    TITLE "0:"
    INDEX 01 01:32:45
  TRACK 86 AUDIO
    TITLE "2:cjc114_4442"
    INDEX 01 01:33:05
  TRACK 87 AUDIO
    TITLE "0:"
    INDEX 01 01:34:20
  TRACK 88 AUDIO
    TITLE "3:cjc114_4443"
    INDEX 01 01:34:36
  TRACK 89 AUDIO
    TITLE "0:"
    INDEX 01 01:36:03
  TRACK 90 AUDIO
    TITLE "4:cjc114_4444"
    INDEX 01 01:36:15
  TRACK 91 AUDIO
    TITLE "0:"
    INDEX 01 01:39:43
